<?xml version="1.0" encoding="UTF-8" standalone="no" ?>
<!DOCTYPE svg PUBLIC "-//W3C//DTD SVG 1.1//EN" "http://www.w3.org/Graphics/SVG/1.1/DTD/svg11.dtd">
<svg xmlns="http://www.w3.org/2000/svg" xmlns:xlink="http://www.w3.org/1999/xlink" version="1.1" width="200" height="200" viewBox="100 100 200 200" xml:space="preserve">
<desc>Created with Fabric.js 3.6.2</desc>
<defs>
</defs>
<g transform="matrix(10 0 0 10 200 200)"  >
<path style="stroke: none; stroke-width: 1; stroke-dasharray: none; stroke-linecap: butt; stroke-dashoffset: 0; stroke-linejoin: miter; stroke-miterlimit: 4; fill: rgb(34,28,22); fill-rule: nonzero; opacity: 1;"  transform=" translate(-12, -12)" d="M 9 11.71 l 0.29 -0.3 l 0.29 0.3 a 1 1 0 0 0 1.42 0 a 1 1 0 0 0 0 -1.42 l -0.3 -0.29 l 0.3 -0.29 A 1 1 0 0 0 9.54 8.29 l -0.29 0.3 L 9 8.29 A 1 1 0 1 0 7.54 9.71 l 0.3 0.29 l -0.3 0.29 a 1 1 0 0 0 0 1.42 a 1 1 0 0 0 1.42 0 Z m -0.6 3.62 a 1 1 0 0 0 -0.13 1.4 a 1 1 0 0 0 1.41 0.13 a 3.76 3.76 0 0 1 4.72 0 a 1 1 0 0 0 1.41 -0.13 a 1 1 0 0 0 -0.13 -1.4 A 5.81 5.81 0 0 0 8.36 15.33 Z M 12 2 A 10 10 0 1 0 22 12 A 10 10 0 0 0 12 2 Z m 0 18 a 8 8 0 1 1 8 -8 A 8 8 0 0 1 12 20 Z M 17 8.29 a 1 1 0 0 0 -1.42 0 l -0.29 0.3 L 15 8.29 a 1 1 0 0 0 -1.42 1.42 l 0.3 0.29 l -0.3 0.29 a 1 1 0 0 0 0 1.42 a 1 1 0 0 0 1.42 0 l 0.29 -0.3 l 0.29 0.3 a 1 1 0 0 0 1.42 0 a 1 1 0 0 0 0 -1.42 l -0.3 -0.29 l 0.3 -0.29 A 1 1 0 0 0 17 8.29 Z" stroke-linecap="round" />
</g>
</svg>